# xmcd
#
# Track frame offsets:
#	150
#	13965
#	28232
#	48875
#	62420
#	78297
#	92175
#	109617
#	127037
#	143255
#	157482
#	171022
#	184885
#	196170
#	212475
#
# Disc length: 2978 seconds
#
# Revision: 1
# Processed by: cddbd v1.5.2PL0 Copyright (c) Steve Scherf et al.
# Submitted via: audiograbber 1.83.01
#
DISCID=c90ba00f
DTITLE=Various Artist - Music First Vol. 6
DYEAR=1900
DGENRE=Country
TTITLE0=Richchet - Daddy's Money  1996
TTITLE1=Wade Hayes - On A ood Night - 1996
TTITLE2=Patty Loveless - Lonely Too Long - 1996
TTITLE3=Joe Diffie - Whole Lotta Gone - 195
TTITLE4=Rick Trevino - Learning As You Go - 1996
TTITLE5=Deryl Dodd - Friends Don't Drive Friends - 1996
TTITLE6=Ty Herndon - Living in a Moment - 1996
TTITLE7=Larry Stewart - Why Can't You
TTITLE8=James Bonamy - I Don't Think I Will
TTITLE9=Collin Raye - What If Jesus Came Back Like That - 1995
TTITLE10=Shenendoah - The Church On Cumberland Road - 1989
TTITLE11=Ricky Van Shelton - Statue of a Fool - 1990
TTITLE12=Tammy Wynette - Good Lovin' (Makes It Right) - 1971
TTITLE13=Charlie Daniels Band - The Devil Went Down to Georgia (LP) - 1979
TTITLE14=Roy Orbison - Only The Lonely - 1960
EXTD=
EXTT0=
EXTT1=
EXTT2=
EXTT3=
EXTT4=
EXTT5=
EXTT6=
EXTT7=
EXTT8=
EXTT9=
EXTT10=
EXTT11=
EXTT12=
EXTT13=
EXTT14=
PLAYORDER=
